{
	"asset":{
		"generator":"Khronos glTF Blender I/O v4.0.43",
		"version":"2.0"
	},
	"extensionsUsed":[
		"EXT_texture_webp"
	],
	"extensionsRequired":[
		"EXT_texture_webp"
	],
	"scene":0,
	"scenes":[
		{
			"name":"Scene",
			"nodes":[
				0,
				1,
				2
			]
		}
	],
	"nodes":[
		{
			"mesh":0,
			"name":"Cube",
			"rotation":[
				0.2557077407836914,
				-0.2179645448923111,
				0.2571697533130646,
				0.906073272228241
			]
		},
		{
			"name":"Empty",
			"rotation":[
				0.0016905697993934155,
				-0.45469433069229126,
				0.006289297249168158,
				0.8906237483024597
			],
			"scale":[
				0.2755814790725708,
				0.2755814790725708,
				0.2755814790725708
			],
			"translation":[
				2.6656336784362793,
				1.2265026569366455,
				3.086355447769165
			]
		},
		{
			"mesh":1,
			"name":"Cube.001",
			"scale":[
				0.2963113784790039,
				0.2963113784790039,
				0.2963113784790039
			],
			"translation":[
				1.4714680910110474,
				-0.2697620689868927,
				3.430610418319702
			]
		}
	],
	"materials":[
		{
			"alphaMode":"BLEND",
			"doubleSided":true,
			"name":"Material",
			"pbrMetallicRoughness":{
				"baseColorTexture":{
					"index":0
				},
				"metallicFactor":0,
				"roughnessFactor":0.5
			}
		}
	],
	"meshes":[
		{
			"name":"Cube",
			"primitives":[
				{
					"attributes":{
						"POSITION":0,
						"NORMAL":1,
						"TEXCOORD_0":2
					},
					"indices":3,
					"material":0
				}
			]
		},
		{
			"name":"Cube.001",
			"primitives":[
				{
					"attributes":{
						"POSITION":4,
						"NORMAL":5,
						"TEXCOORD_0":6
					},
					"indices":7
				}
			]
		}
	],
	"textures":[
		{
			"extensions":{
				"EXT_texture_webp":{
					"source":0
				}
			},
			"sampler":0
		}
	],
	"images":[
		{
			"mimeType":"image/webp",
			"name":"transparentbox",
			"uri":"transparentbox.webp"
		}
	],
	"accessors":[
		{
			"bufferView":0,
			"componentType":5126,
			"count":24,
			"max":[
				1.0333086252212524,
				1,
				1
			],
			"min":[
				-1,
				-1,
				-1.029232382774353
			],
			"type":"VEC3"
		},
		{
			"bufferView":1,
			"componentType":5126,
			"count":24,
			"type":"VEC3"
		},
		{
			"bufferView":2,
			"componentType":5126,
			"count":24,
			"type":"VEC2"
		},
		{
			"bufferView":3,
			"componentType":5123,
			"count":36,
			"type":"SCALAR"
		},
		{
			"bufferView":4,
			"componentType":5126,
			"count":104,
			"max":[
				-4.061617851257324,
				3.7716715335845947,
				-9.012761116027832
			],
			"min":[
				-5.728177070617676,
				-1.2303451299667358,
				-14.143501281738281
			],
			"type":"VEC3"
		},
		{
			"bufferView":5,
			"componentType":5126,
			"count":104,
			"type":"VEC3"
		},
		{
			"bufferView":6,
			"componentType":5126,
			"count":104,
			"type":"VEC2"
		},
		{
			"bufferView":7,
			"componentType":5123,
			"count":228,
			"type":"SCALAR"
		}
	],
	"bufferViews":[
		{
			"buffer":0,
			"byteLength":288,
			"byteOffset":0,
			"target":34962
		},
		{
			"buffer":0,
			"byteLength":288,
			"byteOffset":288,
			"target":34962
		},
		{
			"buffer":0,
			"byteLength":192,
			"byteOffset":576,
			"target":34962
		},
		{
			"buffer":0,
			"byteLength":72,
			"byteOffset":768,
			"target":34963
		},
		{
			"buffer":0,
			"byteLength":1248,
			"byteOffset":840,
			"target":34962
		},
		{
			"buffer":0,
			"byteLength":1248,
			"byteOffset":2088,
			"target":34962
		},
		{
			"buffer":0,
			"byteLength":832,
			"byteOffset":3336,
			"target":34962
		},
		{
			"buffer":0,
			"byteLength":456,
			"byteOffset":4168,
			"target":34963
		}
	],
	"samplers":[
		{
			"magFilter":9729,
			"minFilter":9987
		}
	],
	"buffers":[
		{
			"byteLength":4624,
			"uri":"PowerUpHealth.bin"
		}
	]
}
