{
	"asset":{
		"generator":"Khronos glTF Blender I/O v4.0.43",
		"version":"2.0"
	},
	"extensionsUsed":[
		"KHR_materials_sheen"
	],
	"scene":0,
	"scenes":[
		{
			"name":"Scene",
			"nodes":[
				0
			]
		}
	],
	"nodes":[
		{
			"mesh":0,
			"name":"Cube"
		}
	],
	"materials":[
		{
			"doubleSided":true,
			"extensions":{
				"KHR_materials_sheen":{
					"sheenColorFactor":[
						1.0,
						1.0,
						1.0
					],
					"sheenRoughnessFactor":1
				}
			},
			"name":"Material",
			"pbrMetallicRoughness":{
				"baseColorFactor":[
					0.800000011920929,
					0.800000011920929,
					0.800000011920929,
					1
				],
				"metallicFactor":0.9063444137573242,
				"roughnessFactor":0.4984894394874573
			}
		},
		{
			"doubleSided":true,
			"name":"Material.002",
			"pbrMetallicRoughness":{
				"baseColorTexture":{
					"index":0
				},
				"metallicFactor":0,
				"roughnessFactor":0.5
			}
		}
	],
	"meshes":[
		{
			"name":"Cube",
			"primitives":[
				{
					"attributes":{
						"POSITION":0,
						"NORMAL":1,
						"TEXCOORD_0":2
					},
					"indices":3,
					"material":0
				},
				{
					"attributes":{
						"POSITION":4,
						"NORMAL":5,
						"TEXCOORD_0":6
					},
					"indices":7,
					"material":1
				}
			]
		}
	],
	"textures":[
		{
			"sampler":0,
			"source":0
		}
	],
	"images":[
		{
			"mimeType":"image/jpeg",
			"name":"KSC-99pp0441~orig",
			"uri":"KSC-99pp0441orig.jpg"
		}
	],
	"accessors":[
		{
			"bufferView":0,
			"componentType":5126,
			"count":3735,
			"max":[
				15.18653392791748,
				13.366711616516113,
				15.11017894744873
			],
			"min":[
				-15.18653392791748,
				3.1065621376037598,
				-18.795576095581055
			],
			"type":"VEC3"
		},
		{
			"bufferView":1,
			"componentType":5126,
			"count":3735,
			"type":"VEC3"
		},
		{
			"bufferView":2,
			"componentType":5126,
			"count":3735,
			"type":"VEC2"
		},
		{
			"bufferView":3,
			"componentType":5123,
			"count":5784,
			"type":"SCALAR"
		},
		{
			"bufferView":4,
			"componentType":5126,
			"count":1100,
			"max":[
				5.350945472717285,
				8.24435043334961,
				0.8131331205368042
			],
			"min":[
				-5.350945472717285,
				4.932957649230957,
				-7.2395195960998535
			],
			"type":"VEC3"
		},
		{
			"bufferView":5,
			"componentType":5126,
			"count":1100,
			"type":"VEC3"
		},
		{
			"bufferView":6,
			"componentType":5126,
			"count":1100,
			"type":"VEC2"
		},
		{
			"bufferView":7,
			"componentType":5123,
			"count":2244,
			"type":"SCALAR"
		}
	],
	"bufferViews":[
		{
			"buffer":0,
			"byteLength":44820,
			"byteOffset":0,
			"target":34962
		},
		{
			"buffer":0,
			"byteLength":44820,
			"byteOffset":44820,
			"target":34962
		},
		{
			"buffer":0,
			"byteLength":29880,
			"byteOffset":89640,
			"target":34962
		},
		{
			"buffer":0,
			"byteLength":11568,
			"byteOffset":119520,
			"target":34963
		},
		{
			"buffer":0,
			"byteLength":13200,
			"byteOffset":131088,
			"target":34962
		},
		{
			"buffer":0,
			"byteLength":13200,
			"byteOffset":144288,
			"target":34962
		},
		{
			"buffer":0,
			"byteLength":8800,
			"byteOffset":157488,
			"target":34962
		},
		{
			"buffer":0,
			"byteLength":4488,
			"byteOffset":166288,
			"target":34963
		}
	],
	"samplers":[
		{
			"magFilter":9729,
			"minFilter":9987
		}
	],
	"buffers":[
		{
			"byteLength":170776,
			"uri":"ShipModel.bin"
		}
	]
}
