{
	"asset":{
		"generator":"Khronos glTF Blender I/O v4.0.43",
		"version":"2.0"
	},
	"extensionsUsed":[
		"KHR_materials_sheen",
		"KHR_materials_transmission",
		"KHR_materials_ior"
	],
	"scene":0,
	"scenes":[
		{
			"name":"Scene",
			"nodes":[
				0
			]
		}
	],
	"nodes":[
		{
			"mesh":0,
			"name":"Cube"
		}
	],
	"materials":[
		{
			"doubleSided":true,
			"extensions":{
				"KHR_materials_sheen":{
					"sheenColorFactor":[
						1.0,
						1.0,
						1.0
					],
					"sheenRoughnessFactor":1
				}
			},
			"name":"Material",
			"pbrMetallicRoughness":{
				"baseColorFactor":[
					0.800000011920929,
					0.800000011920929,
					0.800000011920929,
					1
				],
				"metallicFactor":0.9063444137573242,
				"roughnessFactor":0.4984894394874573
			}
		},
		{
			"doubleSided":true,
			"extensions":{
				"KHR_materials_transmission":{
					"transmissionFactor":1
				},
				"KHR_materials_ior":{
					"ior":1.4500000476837158
				}
			},
			"name":"Material.001",
			"pbrMetallicRoughness":{
				"baseColorFactor":[
					0.800000011920929,
					0.800000011920929,
					0.800000011920929,
					1
				],
				"metallicFactor":0,
				"roughnessFactor":0
			}
		},
		{
			"doubleSided":true,
			"name":"Material.002",
			"pbrMetallicRoughness":{
				"baseColorTexture":{
					"index":0
				},
				"metallicFactor":0,
				"roughnessFactor":0.5
			}
		}
	],
	"meshes":[
		{
			"name":"Cube",
			"primitives":[
				{
					"attributes":{
						"POSITION":0,
						"NORMAL":1,
						"TEXCOORD_0":2
					},
					"indices":3,
					"material":0
				},
				{
					"attributes":{
						"POSITION":4,
						"NORMAL":5,
						"TEXCOORD_0":6
					},
					"indices":7,
					"material":1
				},
				{
					"attributes":{
						"POSITION":8,
						"NORMAL":9,
						"TEXCOORD_0":10
					},
					"indices":11,
					"material":2
				}
			]
		}
	],
	"textures":[
		{
			"sampler":0,
			"source":0
		}
	],
	"images":[
		{
			"mimeType":"image/jpeg",
			"name":"KSC-99pp0441~orig",
			"uri":"KSC-99pp0441orig.jpg"
		}
	],
	"accessors":[
		{
			"bufferView":0,
			"componentType":5126,
			"count":3815,
			"max":[
				15.18653392791748,
				13.366711616516113,
				15.11017894744873
			],
			"min":[
				-15.18653392791748,
				3.1065621376037598,
				-18.795576095581055
			],
			"type":"VEC3"
		},
		{
			"bufferView":1,
			"componentType":5126,
			"count":3815,
			"type":"VEC3"
		},
		{
			"bufferView":2,
			"componentType":5126,
			"count":3815,
			"type":"VEC2"
		},
		{
			"bufferView":3,
			"componentType":5123,
			"count":5904,
			"type":"SCALAR"
		},
		{
			"bufferView":4,
			"componentType":5126,
			"count":22,
			"max":[
				5.563847541809082,
				11.00061321258545,
				0.7123186588287354
			],
			"min":[
				-5.563847541809082,
				7.605273246765137,
				-8.817619323730469
			],
			"type":"VEC3"
		},
		{
			"bufferView":5,
			"componentType":5126,
			"count":22,
			"type":"VEC3"
		},
		{
			"bufferView":6,
			"componentType":5126,
			"count":22,
			"type":"VEC2"
		},
		{
			"bufferView":7,
			"componentType":5123,
			"count":30,
			"type":"SCALAR"
		},
		{
			"bufferView":8,
			"componentType":5126,
			"count":1100,
			"max":[
				5.350945472717285,
				8.24435043334961,
				0.8131331205368042
			],
			"min":[
				-5.350945472717285,
				4.932957649230957,
				-7.2395195960998535
			],
			"type":"VEC3"
		},
		{
			"bufferView":9,
			"componentType":5126,
			"count":1100,
			"type":"VEC3"
		},
		{
			"bufferView":10,
			"componentType":5126,
			"count":1100,
			"type":"VEC2"
		},
		{
			"bufferView":11,
			"componentType":5123,
			"count":2244,
			"type":"SCALAR"
		}
	],
	"bufferViews":[
		{
			"buffer":0,
			"byteLength":45780,
			"byteOffset":0,
			"target":34962
		},
		{
			"buffer":0,
			"byteLength":45780,
			"byteOffset":45780,
			"target":34962
		},
		{
			"buffer":0,
			"byteLength":30520,
			"byteOffset":91560,
			"target":34962
		},
		{
			"buffer":0,
			"byteLength":11808,
			"byteOffset":122080,
			"target":34963
		},
		{
			"buffer":0,
			"byteLength":264,
			"byteOffset":133888,
			"target":34962
		},
		{
			"buffer":0,
			"byteLength":264,
			"byteOffset":134152,
			"target":34962
		},
		{
			"buffer":0,
			"byteLength":176,
			"byteOffset":134416,
			"target":34962
		},
		{
			"buffer":0,
			"byteLength":60,
			"byteOffset":134592,
			"target":34963
		},
		{
			"buffer":0,
			"byteLength":13200,
			"byteOffset":134652,
			"target":34962
		},
		{
			"buffer":0,
			"byteLength":13200,
			"byteOffset":147852,
			"target":34962
		},
		{
			"buffer":0,
			"byteLength":8800,
			"byteOffset":161052,
			"target":34962
		},
		{
			"buffer":0,
			"byteLength":4488,
			"byteOffset":169852,
			"target":34963
		}
	],
	"samplers":[
		{
			"magFilter":9729,
			"minFilter":9987
		}
	],
	"buffers":[
		{
			"byteLength":174340,
			"uri":"ShipModel.bin"
		}
	]
}
